<?xml version="1.0" encoding="UTF-8"?>
<svg xmlns="http://www.w3.org/2000/svg" id="Layer_2" viewBox="0 0 32.47 30.59">
  <defs>
    <style>.cls-1{fill:#e82427;stroke-width:0px;}</style>
  </defs>
  <g id="Layer_1-2">
    <path class="cls-1" d="m30.06,20.2c-4.69,6.62-14.63,8.63-20.79,4.22-3.93-2.82-5.06-6.86-4.21-11.18.81-4.12,3.93-6.73,8.03-7.83,5.15-1.39,9.49-.08,11.77,3.29,2.2,3.24,1.53,7.32-1.63,9.96-2.85,2.38-7.99,2.62-10.47.36-1.98-1.79-2.62-3.91-1.07-6.47.23.25.41.36.41.46.06,1.44-.62,4.02.71,4,2.16-.03,4.25,1.58,6.46.28,1.15-.68,2.38-1.25,2.94-2.49,1-2.24.47-4.08-1.72-5.4-3.61-2.17-9.27-.67-11.5,3.09-1.92,3.23.04,8.28,3.93,10.12,5.5,2.6,14.73-1.66,16.13-7.51.53-2.22.22-4.37-1.09-6.34-3.13-4.71-10.53-6.98-16.35-5C5.73,5.79,2.17,10.95,2.54,16.93c.43,6.94,7.67,12.68,15.69,12.43h0c.65,0,1.62-.95,1.73.59-5.29,1.5-10,.32-14.27-2.96C.63,23.11-1,18.03.58,12.04,2.18,6,6.26,2.09,12.33.58c6.16-1.54,11.72.04,16.32,4.39,4.57,4.32,5.04,10.11,1.41,15.24Z"></path>
    <path class="cls-1" d="m25.01,28.36c-1.51,1.1-3.27,1.35-5.04,1.59-.41-.66-1.18-.31-1.73-.59,2.14-1.03,4.55-.3,6.77-1Z"></path>
  </g>
</svg>
